<?xml version="1.0" encoding="utf-8"?>
<!-- Generator: Adobe Illustrator 25.2.0, SVG Export Plug-In . SVG Version: 6.00 Build 0)  -->
<svg version="1.1" id="Camada_1" xmlns="http://www.w3.org/2000/svg" xmlns:xlink="http://www.w3.org/1999/xlink" x="0px" y="0px"
	 viewBox="0 0 646.6 242.9" style="enable-background:new 0 0 646.6 242.9;" xml:space="preserve">
<style type="text/css">
	.st0{fill:#C6CCCB;}
	.st1{clip-path:url(#SVGID_6_);fill:#0E665E;}
	.st2{opacity:0.18;clip-path:url(#SVGID_12_);}
	.st3{fill:#198E80;}
	.st4{clip-path:url(#SVGID_18_);}
	.st5{clip-path:url(#SVGID_27_);}
	.st6{clip-path:url(#SVGID_28_);fill:url(#SVGID_29_);stroke:#FFFFFF;stroke-miterlimit:10;}
	.st7{fill:url(#SVGID_30_);stroke:#FFFFFF;stroke-miterlimit:10;}
	.st8{clip-path:url(#SVGID_33_);}
	.st9{clip-path:url(#SVGID_34_);fill:url(#SVGID_35_);stroke:#FFFFFF;stroke-miterlimit:10;}
	.st10{fill:url(#SVGID_36_);stroke:#FFFFFF;stroke-miterlimit:10;}
	.st11{clip-path:url(#SVGID_39_);}
	.st12{clip-path:url(#SVGID_40_);fill:url(#SVGID_41_);stroke:#FFFFFF;stroke-miterlimit:10;}
	.st13{fill:url(#SVGID_42_);stroke:#FFFFFF;stroke-miterlimit:10;}
	.st14{clip-path:url(#SVGID_45_);}
	.st15{clip-path:url(#SVGID_46_);fill:url(#SVGID_47_);stroke:#FFFFFF;stroke-miterlimit:10;}
	.st16{fill:url(#SVGID_48_);stroke:#FFFFFF;stroke-miterlimit:10;}
	.st17{clip-path:url(#SVGID_51_);}
	.st18{clip-path:url(#SVGID_52_);fill:url(#SVGID_53_);stroke:#FFFFFF;stroke-miterlimit:10;}
	.st19{fill:url(#SVGID_54_);stroke:#FFFFFF;stroke-miterlimit:10;}
	.st20{clip-path:url(#SVGID_57_);}
	.st21{clip-path:url(#SVGID_58_);fill:url(#SVGID_59_);stroke:#FFFFFF;stroke-miterlimit:10;}
	.st22{fill:url(#SVGID_60_);stroke:#FFFFFF;stroke-miterlimit:10;}
	.st23{fill:#D88805;}
	.st24{fill:#AF8343;}
	.st25{clip-path:url(#SVGID_63_);}
	.st26{clip-path:url(#SVGID_64_);fill:url(#SVGID_65_);stroke:#FFFFFF;stroke-miterlimit:10;}
	.st27{fill:url(#SVGID_66_);stroke:#FFFFFF;stroke-miterlimit:10;}
	.st28{fill:#FFFFFF;}
	.st29{clip-path:url(#SVGID_69_);}
	.st30{clip-path:url(#SVGID_70_);fill:url(#SVGID_71_);}
	.st31{fill:url(#SVGID_72_);}
	.st32{clip-path:url(#SVGID_75_);}
	.st33{clip-path:url(#SVGID_76_);fill:url(#SVGID_77_);}
	.st34{fill:url(#SVGID_78_);}
	.st35{clip-path:url(#SVGID_81_);}
	.st36{clip-path:url(#SVGID_82_);fill:url(#SVGID_83_);}
	.st37{fill:url(#SVGID_84_);}
	.st38{clip-path:url(#SVGID_87_);}
	.st39{clip-path:url(#SVGID_88_);fill:url(#SVGID_89_);}
	.st40{fill:url(#SVGID_90_);}
	.st41{clip-path:url(#SVGID_93_);}
	.st42{clip-path:url(#SVGID_94_);fill:url(#SVGID_95_);}
	.st43{fill:url(#SVGID_96_);}
	.st44{clip-path:url(#SVGID_99_);}
	.st45{clip-path:url(#SVGID_100_);fill:url(#SVGID_101_);}
	.st46{fill:url(#SVGID_102_);}
	.st47{clip-path:url(#SVGID_105_);}
	.st48{clip-path:url(#SVGID_106_);fill:url(#SVGID_107_);}
	.st49{opacity:0.37;fill:url(#SVGID_108_);enable-background:new    ;}
	.st50{opacity:0.42;}
	.st51{opacity:0.21;fill:#FFFFFF;stroke:#FFFFFF;stroke-linejoin:round;stroke-miterlimit:10;enable-background:new    ;}
	.st52{opacity:0.72;}
	.st53{fill:none;stroke:#FFFFFF;stroke-linejoin:round;stroke-miterlimit:10;}
	.st54{fill:none;stroke:#FFFFFF;stroke-width:1;stroke-linejoin:round;stroke-miterlimit:10.0003;}
	.st55{fill:none;stroke:#FFFFFF;stroke-width:1;stroke-linejoin:round;stroke-miterlimit:10.0004;}
	.st56{opacity:0.26;}
	.st57{fill:none;stroke:#FFFFFF;stroke-width:2;stroke-miterlimit:10;stroke-dasharray:5,20;}
	.st58{fill:url(#SVGID_109_);}
	.st59{fill:url(#SVGID_110_);}
	.st60{fill:url(#SVGID_111_);}
	.st61{clip-path:url(#SVGID_114_);}
	.st62{clip-path:url(#SVGID_115_);fill:url(#SVGID_116_);stroke:#FFFFFF;stroke-miterlimit:10;}
	.st63{fill:url(#SVGID_117_);stroke:#FFFFFF;stroke-miterlimit:10;}
	.st64{clip-path:url(#SVGID_120_);}
	.st65{clip-path:url(#SVGID_121_);fill:url(#SVGID_122_);stroke:#FFFFFF;stroke-miterlimit:10;}
	.st66{fill:url(#SVGID_123_);stroke:#FFFFFF;stroke-miterlimit:10;}
	.st67{fill:url(#SVGID_124_);}
	.st68{fill:url(#SVGID_125_);}
	.st69{clip-path:url(#SVGID_128_);}
	.st70{clip-path:url(#SVGID_129_);fill:url(#SVGID_130_);}
	.st71{fill:url(#SVGID_131_);}
	.st72{clip-path:url(#SVGID_134_);}
	.st73{clip-path:url(#SVGID_135_);fill:url(#SVGID_136_);}
	.st74{fill:url(#SVGID_137_);}
	.st75{fill:#0E665E;}
	.st76{fill:#4F4F4F;}
</style>
<g>
	<path class="st0" d="M114.6,230.2l-6.4-2.7c-24.9-10.3-45-25.9-59.6-46.3c-11.7-16.3-19.8-35.6-24.1-57.3
		c-7.1-36.1-1.1-66.7-0.8-68L26,44.3l88.4-21.9l88.5,21.8l2.4,11.7c0.3,1.3,6.3,31.9-0.8,68c-4.3,21.7-12.3,40.9-24,57.3
		c-14.6,20.4-34.6,36-59.5,46.4L114.6,230.2z M38.3,56l-0.6,2.8c-0.2,1.2-5.7,29.1,0.9,62.4c3.9,19.6,11.2,37,21.7,51.7
		c13,18.2,31,32.1,53.4,41.4l0,0l0.9,0.4l0.9-0.4c22.4-9.3,40.4-23.2,53.4-41.4c10.5-14.7,17.7-32.1,21.6-51.7
		c6.5-33.3,1-61.2,0.8-62.4l-0.6-2.8l-76.2-18.8L38.3,56z"/>
	<g>
		<g>
			<defs>
				<path id="SVGID_3_" d="M111.1,216.6c-22.7-9.4-41-23.6-54.2-42.1c-10.7-14.9-18-32.5-22-52.3c-6.6-33.3-1.1-61.4-0.8-62.5l1.4-7
					l79-19.6l79,19.5l1.4,7c0.2,1.2,5.8,29.3-0.7,62.5c-3.9,19.8-11.3,37.4-21.9,52.3c-13.2,18.5-31.5,32.7-54.2,42.1l-3.5,1.5
					L111.1,216.6z"/>
			</defs>
			<clipPath id="SVGID_6_">
				<use xlink:href="#SVGID_3_"  style="overflow:visible;"/>
			</clipPath>
			<rect x="-48.9" y="29.4" class="st1" width="305.7" height="192.4"/>
		</g>
		<g>
			<defs>
				<path id="SVGID_9_" d="M111.1,216.6c-22.7-9.4-41-23.6-54.2-42.1c-10.7-14.9-18-32.5-22-52.3c-6.6-33.3-1.1-61.4-0.8-62.5l1.4-7
					l79-19.6l79,19.5l1.4,7c0.2,1.2,5.8,29.3-0.7,62.5c-3.9,19.8-11.3,37.4-21.9,52.3c-13.2,18.5-31.5,32.7-54.2,42.1l-3.5,1.5
					L111.1,216.6z"/>
			</defs>
			<clipPath id="SVGID_12_">
				<use xlink:href="#SVGID_9_"  style="overflow:visible;"/>
			</clipPath>
			<g class="st2">
				<g>
					<g>
						<g>
							<g>
								<g>
									<path class="st3" d="M125.7,96.9c-0.4,0-0.6-0.4-0.6-0.6V68c0-0.4,0.4-0.6,0.6-0.6c0.4,0,0.6,0.4,0.6,0.6v28.3
										C126.4,96.5,126.2,96.9,125.7,96.9z"/>
								</g>
							</g>
						</g>
					</g>
					<g>
						<g>
							<g>
								<g>
									<path class="st3" d="M132.6,124.6c-0.6,0-1.5-0.6-1.5-1.5v-14.3l-6.5-3.7c-0.6-0.4-1.1-1.3-0.4-1.9
										c0.4-0.6,1.3-1.1,1.9-0.4l6.9,4.3c0.4,0.2,0.6,0.6,0.6,1.3v15.1C134.2,123.7,133.7,124.6,132.6,124.6z"/>
								</g>
							</g>
						</g>
					</g>
					<g>
						<g>
							<g>
								<g>
									<path class="st3" d="M158.6,145.1h-20.3c-0.6,0-1.5-0.6-1.5-1.5s0.6-1.5,1.5-1.5h20.3c0.6,0,1.5,0.6,1.5,1.5
										C160.1,144.4,159.2,145.1,158.6,145.1z"/>
								</g>
							</g>
						</g>
					</g>
					<g>
						<g>
							<g>
								<g>
									<path class="st3" d="M145.2,36.9h-24.4c-0.6,0-1.5-0.6-1.5-1.5c0-0.6,0.6-1.5,1.5-1.5h24.4c0.6,0,1.5,0.6,1.5,1.5
										S145.8,36.9,145.2,36.9z"/>
								</g>
							</g>
						</g>
					</g>
					<g>
						<g>
							<g>
								<g>
									<path class="st3" d="M160.1,172.7c-0.2,0-0.2,0-0.4-0.2c-0.4-0.2-0.4-0.6-0.2-1.3l18.1-29.4l-2.6-6.9c0-0.2,0-0.4,0-0.6
										l11-20.5c0.2-0.4,0.6-0.4,1.3-0.2c0.4,0.2,0.4,0.6,0.2,1.3L176.7,135l2.2,7.1c0,0.2,0,0.4,0,0.6l-18.1,29.8
										C160.7,172.5,160.5,172.7,160.1,172.7z"/>
								</g>
							</g>
						</g>
					</g>
					<g>
						<g>
							<g>
								<g>
									<path class="st3" d="M189.9,109.9c-0.2,0-0.4,0-0.6-0.2c-0.6-0.2-1.1-1.3-0.4-1.9l11-20.3c0.2-0.6,1.3-1.1,1.9-0.4
										c0.6,0.2,1.1,1.3,0.4,1.9l-11.3,20C190.7,109.7,190.3,109.9,189.9,109.9z"/>
								</g>
							</g>
						</g>
					</g>
					<g>
						<g>
							<g>
								<g>
									<path class="st3" d="M216.6,91.5c-0.2,0-0.4,0-0.6-0.2l-66.5-47.5h-8.6c-0.6,0-1.5-0.6-1.5-1.5c0-0.6,0.6-1.5,1.5-1.5h9.3
										c0.2,0,0.4,0,0.6,0.2l66.7,47.7c0.6,0.4,0.6,1.3,0.2,1.9C217.3,91.3,217.1,91.5,216.6,91.5z"/>
								</g>
							</g>
						</g>
					</g>
					<g>
						<g>
							<g>
								<g>
									<path class="st3" d="M135.7,123.7"/>
								</g>
							</g>
						</g>
					</g>
					<g>
						<g>
							<g>
								<g>
									<path class="st3" d="M168.9,133.4c-0.2,0-0.2,0-0.4,0c-0.4-0.2-0.4-0.6-0.2-1.3l26.1-47.9l-46.6-33.5
										c-0.4-0.2-0.4-0.6-0.2-1.3c0.2-0.4,0.6-0.4,1.3-0.2L196,83.1c0.2,0.2,0.4,0.6,0.2,1.1L169.6,133
										C169.6,133.2,169.4,133.4,168.9,133.4z"/>
								</g>
							</g>
						</g>
					</g>
					<g>
						<g>
							<g>
								<g>
									<path class="st3" d="M159.6,138h-29.1c-0.6,0-1.5-0.6-1.5-1.5s0.6-1.5,1.5-1.5H159l25.3-48.6c0.2-0.6,1.3-1.1,1.9-0.4
										c0.6,0.2,1.1,1.3,0.4,1.9l-25.7,49.2C160.7,137.7,160.3,138,159.6,138z"/>
								</g>
							</g>
						</g>
					</g>
					<g>
						<g>
							<g>
								<g>
									<path class="st3" d="M155.1,116.8c-0.2,0-0.2,0-0.4,0c-0.4-0.2-0.4-0.6-0.4-1.3l16-31.5l-33.9-22.7
										c-0.4-0.2-0.4-0.6-0.2-1.3c0.2-0.4,0.6-0.4,1.3-0.2l34.3,23.3c0.2,0.2,0.4,0.6,0.2,1.1l-16.2,32
										C155.8,116.6,155.3,116.8,155.1,116.8z"/>
								</g>
							</g>
						</g>
					</g>
					<g>
						<g>
							<g>
								<g>
									<path class="st3" d="M134.4,43.8h-31.5c-0.6,0-1.5-0.6-1.5-1.5c0-0.6,0.6-1.5,1.5-1.5h31.5c0.6,0,1.5,0.6,1.5,1.5
										S135.2,43.8,134.4,43.8z"/>
								</g>
							</g>
						</g>
					</g>
					<path class="st3" d="M125.3,56.8c-1.5,0-2.8,1.1-3.5,2.2h-8c-0.6,0-1.5,0.6-1.5,1.5s0.6,1.5,1.5,1.5h7.8
						c0.4,1.5,1.9,2.4,3.5,2.4c1.9,0,3.7-1.7,3.7-3.7C129,58.3,127.3,56.8,125.3,56.8z"/>
					<path class="st3" d="M159.2,122h-13.6c-0.2-1.7-1.7-3-3.5-3.2V72.5c0-0.2-0.2-0.4-0.2-0.6l-8-5.6c-0.4-0.4-1.1-0.4-1.3,0.2
						c-0.2,0.4-0.2,1.1,0.2,1.3l7.8,5.4v46c-1.5,0.4-2.4,1.9-2.4,3.5c0,1.9,1.7,3.7,3.7,3.7c1.7,0,3-1.1,3.5-2.8h13.8
						c0.4,0,0.6-0.4,0.6-0.6C160.1,122.6,159.6,122,159.2,122z"/>
					<path class="st3" d="M183.4,81.8c0-1.9-1.7-3.7-3.7-3.7c-0.2,0-0.4,0-0.6,0l-21.6-14.9c-0.6-0.4-1.5-0.2-1.9,0.2
						c-0.4,0.6-0.2,1.5,0.2,1.9l20.5,14.5c-0.2,0.4-0.4,1.3-0.4,1.9c0,1.5,0.6,2.8,1.9,3.2l-16,29.6c-0.2,0.6,0,1.5,0.4,1.9
						c0.2,0,0.4,0.2,0.6,0.2c0.4,0,1.1-0.2,1.3-0.6l16.4-30.9C182.3,84.8,183.4,83.5,183.4,81.8z"/>
					<path class="st3" d="M164.2,86.6c0-1.9-1.7-3.7-3.7-3.7c-0.2,0-0.6,0-1.1,0.2L149.1,76c-0.4-0.2-1.1-0.2-1.5,0
						s-0.6,0.6-0.6,1.3l-0.2,39.7c0,0.6,0.6,1.5,1.5,1.5l0,0c0.6,0,1.5-0.6,1.5-1.5V79.9l7.8,5.2c-0.2,0.4-0.4,1.3-0.4,1.7
						c0,1.5,0.6,2.4,1.9,3.2l-6.3,13.2c-0.2,0.6,0,1.5,0.6,1.9c0.6,0.2,1.5,0,1.9-0.6l6.3-14.3C162.9,89.6,164.2,88.3,164.2,86.6z"
						/>
					<path class="st3" d="M156.6,129.3h-27.2v-0.2c0-1.7-1.3-3.2-2.8-3.7v-13.6c0-0.4-0.4-0.6-0.6-0.6c-0.4,0-0.6,0.4-0.6,0.6v13.6
						c-1.7,0.2-3,1.9-3,3.7c0,1.9,1.7,3.7,3.7,3.7c1.5,0,2.4-0.6,3.2-1.9h27.6c0.4,0,0.6-0.4,0.6-0.6
						C157.3,129.8,157,129.3,156.6,129.3z"/>
					<path class="st3" d="M207.1,89.8c-0.6-0.2-1.5,0-1.9,0.4l-21.4,41.5c-1.7,0.2-3,1.9-3,3.7s1.3,3.5,3,3.7l1.1,3.7l-9.5,15.1
						c-0.4,0.6-0.2,1.5,0.4,1.9c0.2,0.2,0.4,0.2,0.6,0.2c0.4,0,1.1-0.2,1.3-0.6l9.9-15.5c0.2-0.2,0.2-0.6,0.2-1.3l-1.3-4.3
						c1.1-0.6,1.7-1.7,1.7-3.2c0-1.3-0.6-2.4-1.5-3l21.3-41C208.2,91.1,207.8,90,207.1,89.8z"/>
					<path class="st3" d="M134.6,93.3V73.8c0-0.6-0.6-1.5-1.5-1.5c-0.6,0-1.5,0.6-1.5,1.5v19.4c-1.5,0.4-2.4,1.9-2.4,3.5
						c0,1.9,1.7,3.7,3.7,3.7s3.7-1.7,3.7-3.7C137,95.2,136.1,93.9,134.6,93.3z"/>
					<path class="st3" d="M203.5,71.5l-46.9-34.3c0-0.2,0.2-0.6,0.2-1.1c0-1.9-1.7-3.7-3.7-3.7s-3.7,1.7-3.7,3.7s1.7,3.7,3.7,3.7
						c1.1,0,1.9-0.4,2.8-1.3l46.6,33.9c0.2,0,0.2,0.2,0.4,0.2s0.4,0,0.6-0.2C203.9,72.1,203.9,71.7,203.5,71.5z"/>
					<path class="st3" d="M169.4,139.7c-0.6-0.4-1.5-0.2-1.9,0.4l-8.4,14.5l-1.5-4.5c-0.2-0.4-0.6-1.1-1.3-1.1h-27
						c-0.4-1.5-1.9-2.4-3.5-2.4c-1.7,0-3,1.1-3.5,2.4h-6.9c-0.6,0-1.5,0.6-1.5,1.5s0.6,1.5,1.5,1.5h7.1c0.4,1.3,1.9,2.2,3.5,2.2
						c1.5,0,2.8-1.1,3.5-2.2h26.1l2.2,6.5c0.2,0.4,0.6,1.1,1.3,1.1c0,0,0,0,0.2,0c0.4,0,1.1-0.2,1.3-0.6l10.1-17.1
						C170.4,141,170.2,140.1,169.4,139.7z"/>
					<path class="st3" d="M152.3,59.8l-11-7.8c0-0.2,0-0.2,0-0.4c0-1.9-1.7-3.7-3.7-3.7c-1.5,0-2.8,0.6-3.5,1.9h-17.3
						c-0.6,0-1.5,0.6-1.5,1.5s0.6,1.5,1.5,1.5h17.1c0.4,1.5,1.9,2.4,3.5,2.4c1.1,0,1.7-0.2,2.2-0.6l10.6,7.3
						c0.2,0.2,0.4,0.2,0.6,0.2c0.4,0,1.1-0.2,1.3-0.4C153.4,61.3,152.9,60.2,152.3,59.8z"/>
				</g>
			</g>
		</g>
		<g>
			<defs>
				<path id="SVGID_15_" d="M111.1,216.6c-22.7-9.4-41-23.6-54.2-42.1c-10.7-14.9-18-32.5-22-52.3c-6.6-33.3-1.1-61.4-0.8-62.5
					l1.4-7l79-19.6l79,19.5l1.4,7c0.2,1.2,5.8,29.3-0.7,62.5c-3.9,19.8-11.3,37.4-21.9,52.3c-13.2,18.5-31.5,32.7-54.2,42.1
					l-3.5,1.5L111.1,216.6z"/>
			</defs>
			<clipPath id="SVGID_18_">
				<use xlink:href="#SVGID_15_"  style="overflow:visible;"/>
			</clipPath>
			<g class="st4">
				<g>
					<g>
						<g>
							<g>
								<g>
									<defs>
										<polygon id="SVGID_21_" points="1,1 2,1 1,2 										"/>
									</defs>
									<defs>
										<polygon id="SVGID_24_" points="-1,-1 -2,-1 -1,-2 										"/>
									</defs>
									<clipPath id="SVGID_27_">
										<use xlink:href="#SVGID_21_"  style="overflow:visible;"/>
									</clipPath>
									<clipPath id="SVGID_28_" class="st5">
										<use xlink:href="#SVGID_24_"  style="overflow:visible;"/>
									</clipPath>
									
										<linearGradient id="SVGID_29_" gradientUnits="userSpaceOnUse" x1="-6870.6372" y1="4736.7427" x2="-6865.6553" y2="4747.9199" gradientTransform="matrix(-0.5928 0.8054 -0.8054 -0.5928 -124.7765 8425.3262)">
										<stop  offset="4.989920e-03" style="stop-color:#000000"/>
										<stop  offset="1" style="stop-color:#E6E6E6"/>
									</linearGradient>
									<polygon class="st6" points="123,83.1 129.4,87.8 133.5,82.3 127.1,77.6 									"/>
								</g>
							</g>
							
								<linearGradient id="SVGID_30_" gradientUnits="userSpaceOnUse" x1="-6870.6372" y1="4736.7427" x2="-6865.6553" y2="4747.9199" gradientTransform="matrix(-0.5928 0.8054 -0.8054 -0.5928 -124.7765 8425.3262)">
								<stop  offset="4.989920e-03" style="stop-color:#FFFFFF"/>
								<stop  offset="1" style="stop-color:#FFFFFF"/>
							</linearGradient>
							<polygon class="st7" points="123,83.1 129.4,87.8 133.5,82.3 127.1,77.6 							"/>
							<g>
								<g>
									<defs>
										<polygon id="SVGID_31_" points="1,1 2,1 1,2 										"/>
									</defs>
									<defs>
										<polygon id="SVGID_32_" points="-1,-1 -2,-1 -1,-2 										"/>
									</defs>
									<clipPath id="SVGID_33_">
										<use xlink:href="#SVGID_31_"  style="overflow:visible;"/>
									</clipPath>
									<clipPath id="SVGID_34_" class="st8">
										<use xlink:href="#SVGID_32_"  style="overflow:visible;"/>
									</clipPath>
									
										<linearGradient id="SVGID_35_" gradientUnits="userSpaceOnUse" x1="-6889.168" y1="4739.2197" x2="-6748.7139" y2="4744.0815" gradientTransform="matrix(-0.5928 0.8054 -0.8054 -0.5928 -124.7765 8425.3262)">
										<stop  offset="4.989920e-03" style="stop-color:#000000"/>
										<stop  offset="1" style="stop-color:#E6E6E6"/>
									</linearGradient>
									<polygon class="st9" points="62.3,150.7 82.4,165.5 136,92.7 116,77.9 									"/>
								</g>
							</g>
							
								<linearGradient id="SVGID_36_" gradientUnits="userSpaceOnUse" x1="-6889.168" y1="4739.2197" x2="-6748.7139" y2="4744.0815" gradientTransform="matrix(-0.5928 0.8054 -0.8054 -0.5928 -124.7765 8425.3262)">
								<stop  offset="4.989920e-03" style="stop-color:#FFFFFF"/>
								<stop  offset="1" style="stop-color:#FFFFFF"/>
							</linearGradient>
							<polygon class="st10" points="62.3,150.7 82.4,165.5 136,92.7 116,77.9 							"/>
							<g>
								<g>
									<defs>
										<polygon id="SVGID_37_" points="1,1 2,1 1,2 										"/>
									</defs>
									<defs>
										<polygon id="SVGID_38_" points="-1,-1 -2,-1 -1,-2 										"/>
									</defs>
									<clipPath id="SVGID_39_">
										<use xlink:href="#SVGID_37_"  style="overflow:visible;"/>
									</clipPath>
									<clipPath id="SVGID_40_" class="st11">
										<use xlink:href="#SVGID_38_"  style="overflow:visible;"/>
									</clipPath>
									
										<linearGradient id="SVGID_41_" gradientUnits="userSpaceOnUse" x1="-6782.4883" y1="4726.6309" x2="-6769.9902" y2="4744.1279" gradientTransform="matrix(-0.5928 0.8054 -0.8054 -0.5928 -124.7765 8425.3262)">
										<stop  offset="4.989920e-03" style="stop-color:#000000"/>
										<stop  offset="1" style="stop-color:#E6E6E6"/>
									</linearGradient>
									<polygon class="st12" points="53.7,151.8 83.9,174 87.4,169.2 57.2,147 									"/>
								</g>
							</g>
							
								<linearGradient id="SVGID_42_" gradientUnits="userSpaceOnUse" x1="-6782.4883" y1="4726.6309" x2="-6769.9902" y2="4744.1279" gradientTransform="matrix(-0.5928 0.8054 -0.8054 -0.5928 -124.7765 8425.3262)">
								<stop  offset="4.989920e-03" style="stop-color:#FFFFFF"/>
								<stop  offset="1" style="stop-color:#FFFFFF"/>
							</linearGradient>
							<polygon class="st13" points="53.7,151.8 83.9,174 87.4,169.2 57.2,147 							"/>
							<g>
								<g>
									<defs>
										<polygon id="SVGID_43_" points="1,1 2,1 1,2 										"/>
									</defs>
									<defs>
										<polygon id="SVGID_44_" points="-1,-1 -2,-1 -1,-2 										"/>
									</defs>
									<clipPath id="SVGID_45_">
										<use xlink:href="#SVGID_43_"  style="overflow:visible;"/>
									</clipPath>
									<clipPath id="SVGID_46_" class="st14">
										<use xlink:href="#SVGID_44_"  style="overflow:visible;"/>
									</clipPath>
									
										<linearGradient id="SVGID_47_" gradientUnits="userSpaceOnUse" x1="-6729.229" y1="4752.041" x2="-6742.3936" y2="4736.0952" gradientTransform="matrix(-0.5928 0.8054 -0.8054 -0.5928 -124.7765 8425.3262)">
										<stop  offset="4.989920e-03" style="stop-color:#000000"/>
										<stop  offset="1" style="stop-color:#E6E6E6"/>
									</linearGradient>
									<polygon class="st15" points="38.6,181.8 59.8,197.3 62.2,194 41,178.4 									"/>
								</g>
							</g>
							
								<linearGradient id="SVGID_48_" gradientUnits="userSpaceOnUse" x1="-6729.229" y1="4752.041" x2="-6742.3936" y2="4736.0952" gradientTransform="matrix(-0.5928 0.8054 -0.8054 -0.5928 -124.7765 8425.3262)">
								<stop  offset="4.989920e-03" style="stop-color:#FFFFFF"/>
								<stop  offset="1" style="stop-color:#FFFFFF"/>
							</linearGradient>
							<polygon class="st16" points="38.6,181.8 59.8,197.3 62.2,194 41,178.4 							"/>
							<g>
								<g>
									<defs>
										<polygon id="SVGID_49_" points="1,1 2,1 1,2 										"/>
									</defs>
									<defs>
										<polygon id="SVGID_50_" points="-1,-1 -2,-1 -1,-2 										"/>
									</defs>
									<clipPath id="SVGID_51_">
										<use xlink:href="#SVGID_49_"  style="overflow:visible;"/>
									</clipPath>
									<clipPath id="SVGID_52_" class="st17">
										<use xlink:href="#SVGID_50_"  style="overflow:visible;"/>
									</clipPath>
									
										<linearGradient id="SVGID_53_" gradientUnits="userSpaceOnUse" x1="-6754.8208" y1="4784.2349" x2="-6753.8423" y2="4706.9497" gradientTransform="matrix(-0.5928 0.8054 -0.8054 -0.5928 -124.7765 8425.3262)">
										<stop  offset="4.989920e-03" style="stop-color:#000000"/>
										<stop  offset="1" style="stop-color:#E6E6E6"/>
									</linearGradient>
									<polygon class="st18" points="45.9,182 57.4,190.4 74.5,167.1 63.1,158.7 									"/>
								</g>
							</g>
							
								<linearGradient id="SVGID_54_" gradientUnits="userSpaceOnUse" x1="-6754.8208" y1="4784.2349" x2="-6753.8423" y2="4706.9497" gradientTransform="matrix(-0.5928 0.8054 -0.8054 -0.5928 -124.7765 8425.3262)">
								<stop  offset="4.989920e-03" style="stop-color:#FFFFFF"/>
								<stop  offset="1" style="stop-color:#FFFFFF"/>
							</linearGradient>
							<polygon class="st19" points="45.9,182 57.4,190.4 74.5,167.1 63.1,158.7 							"/>
							<g>
								<g>
									<defs>
										<polygon id="SVGID_55_" points="1,1 2,1 1,2 										"/>
									</defs>
									<defs>
										<polygon id="SVGID_56_" points="-1,-1 -2,-1 -1,-2 										"/>
									</defs>
									<clipPath id="SVGID_57_">
										<use xlink:href="#SVGID_55_"  style="overflow:visible;"/>
									</clipPath>
									<clipPath id="SVGID_58_" class="st20">
										<use xlink:href="#SVGID_56_"  style="overflow:visible;"/>
									</clipPath>
									
										<linearGradient id="SVGID_59_" gradientUnits="userSpaceOnUse" x1="-6787.7769" y1="4725.3145" x2="-6787.6851" y2="4757.606" gradientTransform="matrix(-0.5928 0.8054 -0.8054 -0.5928 -124.7765 8425.3262)">
										<stop  offset="4.989920e-03" style="stop-color:#000000"/>
										<stop  offset="1" style="stop-color:#E6E6E6"/>
									</linearGradient>
									<polygon class="st21" points="64.2,152 80.8,164.2 96,143.4 79.5,131.2 									"/>
								</g>
							</g>
							
								<linearGradient id="SVGID_60_" gradientUnits="userSpaceOnUse" x1="-6787.7769" y1="4725.3145" x2="-6787.6851" y2="4757.606" gradientTransform="matrix(-0.5928 0.8054 -0.8054 -0.5928 -124.7765 8425.3262)">
								<stop  offset="4.989920e-03" style="stop-color:#FFFFFF"/>
								<stop  offset="1" style="stop-color:#FFFFFF"/>
							</linearGradient>
							<polygon class="st22" points="64.2,152 80.8,164.2 96,143.4 79.5,131.2 							"/>
							<polygon class="st23" points="78.3,130.4 97.1,144.2 100.2,140 81.4,126.2 							"/>
							<polygon class="st3" points="81.4,126.2 100.2,140 134.7,93.1 116,79.3 							"/>
							<g>
								<polygon class="st23" points="134,83.1 130.1,80.2 136.4,71.7 138.3,73.2 								"/>
								<polygon class="st24" points="126.1,77.3 130.1,80.2 136.4,71.7 134.4,70.2 								"/>
							</g>
							<g>
								<g>
									<defs>
										<polygon id="SVGID_61_" points="1,1 2,1 1,2 										"/>
									</defs>
									<defs>
										<polygon id="SVGID_62_" points="-1,-1 -2,-1 -1,-2 										"/>
									</defs>
									<clipPath id="SVGID_63_">
										<use xlink:href="#SVGID_61_"  style="overflow:visible;"/>
									</clipPath>
									<clipPath id="SVGID_64_" class="st25">
										<use xlink:href="#SVGID_62_"  style="overflow:visible;"/>
									</clipPath>
									
										<linearGradient id="SVGID_65_" gradientUnits="userSpaceOnUse" x1="-6915.6831" y1="4741.3345" x2="-6882.2236" y2="4741.3345" gradientTransform="matrix(-0.5928 0.8054 -0.8054 -0.5928 -124.7765 8425.3262)">
										<stop  offset="4.989920e-03" style="stop-color:#000000"/>
										<stop  offset="1" style="stop-color:#E6E6E6"/>
									</linearGradient>
									<polygon class="st26" points="155.8,44.5 135.9,71.4 136.8,72 155.9,46 									"/>
								</g>
							</g>
							
								<linearGradient id="SVGID_66_" gradientUnits="userSpaceOnUse" x1="-6915.6831" y1="4741.3345" x2="-6882.2236" y2="4741.3345" gradientTransform="matrix(-0.5928 0.8054 -0.8054 -0.5928 -124.7765 8425.3262)">
								<stop  offset="4.989920e-03" style="stop-color:#FFFFFF"/>
								<stop  offset="1" style="stop-color:#FFFFFF"/>
							</linearGradient>
							<polygon class="st27" points="155.8,44.5 135.9,71.4 136.8,72 155.9,46 							"/>
							<g>
								<g>
									<polygon class="st28" points="122.6,92.9 129.6,97.9 130.1,97.3 123.1,92.2 									"/>
									<polygon class="st28" points="119.9,96.6 126.8,101.7 127.3,101 120.4,95.9 									"/>
								</g>
								<g>
									<polygon class="st28" points="117.4,99.9 124.4,105 124.9,104.3 118,99.2 									"/>
									<polygon class="st28" points="114.7,103.7 121.6,108.7 122.1,108.1 115.2,103 									"/>
								</g>
								<g>
									<polygon class="st28" points="107.3,104.4 118.6,112.7 119.2,112.1 107.8,103.7 									"/>
									<polygon class="st28" points="109,111.4 115.9,116.5 116.4,115.8 109.5,110.7 									"/>
								</g>
								<g>
									<polygon class="st28" points="106.5,114.7 113.5,119.8 114,119.1 107,114 									"/>
									<polygon class="st28" points="103.8,118.5 110.7,123.5 111.2,122.9 104.3,117.8 									"/>
								</g>
								<g>
									<polygon class="st28" points="101.3,121.8 108.2,126.9 108.8,126.2 101.8,121.1 									"/>
									<polygon class="st28" points="94.2,122.3 105.5,130.6 106,129.9 94.7,121.6 									"/>
								</g>
								<g>
									<polygon class="st28" points="96.1,128.8 103.1,133.9 103.6,133.2 96.6,128.1 									"/>
									<polygon class="st28" points="93.4,132.6 100.3,137.7 100.8,137 93.9,131.9 									"/>
								</g>
								<g>
									<polygon class="st28" points="90.4,136.6 97.3,141.7 97.8,141 90.9,135.9 									"/>
									<polygon class="st28" points="87.7,140.3 94.6,145.4 95.1,144.7 88.2,139.6 									"/>
								</g>
								<g>
									<polygon class="st28" points="80.8,140.4 92.2,148.7 92.6,148.1 81.2,139.8 									"/>
								</g>
							</g>
						</g>
						<g>
							<g>
								<defs>
									<polygon id="SVGID_67_" points="1,1 2,1 1,2 									"/>
								</defs>
								<defs>
									<polygon id="SVGID_68_" points="-1,-1 -2,-1 -1,-2 									"/>
								</defs>
								<clipPath id="SVGID_69_">
									<use xlink:href="#SVGID_67_"  style="overflow:visible;"/>
								</clipPath>
								<clipPath id="SVGID_70_" class="st29">
									<use xlink:href="#SVGID_68_"  style="overflow:visible;"/>
								</clipPath>
								
									<linearGradient id="SVGID_71_" gradientUnits="userSpaceOnUse" x1="2724.0784" y1="2929.342" x2="2575.3223" y2="3062.3762" gradientTransform="matrix(-0.8054 -0.5928 0.5928 -0.8054 480.9632 4109.6001)">
									<stop  offset="4.989920e-03" style="stop-color:#000000"/>
									<stop  offset="1" style="stop-color:#E6E6E6"/>
								</linearGradient>
								<polygon class="st30" points="78,162.3 82.4,165.5 136,92.7 131.7,89.5 								"/>
							</g>
						</g>
						
							<linearGradient id="SVGID_72_" gradientUnits="userSpaceOnUse" x1="2724.0784" y1="2929.342" x2="2575.3223" y2="3062.3762" gradientTransform="matrix(-0.8054 -0.5928 0.5928 -0.8054 480.9632 4109.6001)">
							<stop  offset="4.989920e-03" style="stop-color:#FFFFFF"/>
							<stop  offset="1" style="stop-color:#FFFFFF"/>
						</linearGradient>
						<polygon class="st31" points="78,162.3 82.4,165.5 136,92.7 131.7,89.5 						"/>
						<g>
							<g>
								<defs>
									<polygon id="SVGID_73_" points="1,1 2,1 1,2 									"/>
								</defs>
								<defs>
									<polygon id="SVGID_74_" points="-1,-1 -2,-1 -1,-2 									"/>
								</defs>
								<clipPath id="SVGID_75_">
									<use xlink:href="#SVGID_73_"  style="overflow:visible;"/>
								</clipPath>
								<clipPath id="SVGID_76_" class="st32">
									<use xlink:href="#SVGID_74_"  style="overflow:visible;"/>
								</clipPath>
								
									<linearGradient id="SVGID_77_" gradientUnits="userSpaceOnUse" x1="2641.6086" y1="2943.1914" x2="2726.3145" y2="2867.0156" gradientTransform="matrix(-0.8054 -0.5928 0.5928 -0.8054 480.9632 4109.6001)">
									<stop  offset="4.989920e-03" style="stop-color:#000000"/>
									<stop  offset="1" style="stop-color:#E6E6E6"/>
								</linearGradient>
								<polygon class="st33" points="51.6,186.2 57.4,190.4 74.5,167.1 68.8,162.9 								"/>
							</g>
						</g>
						
							<linearGradient id="SVGID_78_" gradientUnits="userSpaceOnUse" x1="2641.6086" y1="2943.1914" x2="2726.3145" y2="2867.0156" gradientTransform="matrix(-0.8054 -0.5928 0.5928 -0.8054 480.9632 4109.6001)">
							<stop  offset="4.989920e-03" style="stop-color:#FFFFFF"/>
							<stop  offset="1" style="stop-color:#FFFFFF"/>
						</linearGradient>
						<polygon class="st34" points="51.6,186.2 57.4,190.4 74.5,167.1 68.8,162.9 						"/>
						<g>
							<g>
								<defs>
									<polygon id="SVGID_79_" points="1,1 2,1 1,2 									"/>
								</defs>
								<defs>
									<polygon id="SVGID_80_" points="-1,-1 -2,-1 -1,-2 									"/>
								</defs>
								<clipPath id="SVGID_81_">
									<use xlink:href="#SVGID_79_"  style="overflow:visible;"/>
								</clipPath>
								<clipPath id="SVGID_82_" class="st35">
									<use xlink:href="#SVGID_80_"  style="overflow:visible;"/>
								</clipPath>
								
									<linearGradient id="SVGID_83_" gradientUnits="userSpaceOnUse" x1="2646.5374" y1="2945.3579" x2="2676.2947" y2="2918.5969" gradientTransform="matrix(-0.8054 -0.5928 0.5928 -0.8054 480.9632 4109.6001)">
									<stop  offset="4.989920e-03" style="stop-color:#000000"/>
									<stop  offset="1" style="stop-color:#E6E6E6"/>
								</linearGradient>
								<polygon class="st36" points="78.8,170.3 83.9,174 87.4,169.2 82.4,165.5 								"/>
							</g>
						</g>
						
							<linearGradient id="SVGID_84_" gradientUnits="userSpaceOnUse" x1="2646.5374" y1="2945.3579" x2="2676.2947" y2="2918.5969" gradientTransform="matrix(-0.8054 -0.5928 0.5928 -0.8054 480.9632 4109.6001)">
							<stop  offset="4.989920e-03" style="stop-color:#FFFFFF"/>
							<stop  offset="1" style="stop-color:#FFFFFF"/>
						</linearGradient>
						<polygon class="st37" points="78.8,170.3 83.9,174 87.4,169.2 82.4,165.5 						"/>
						<g>
							<g>
								<defs>
									<polygon id="SVGID_85_" points="1,1 2,1 1,2 									"/>
								</defs>
								<defs>
									<polygon id="SVGID_86_" points="-1,-1 -2,-1 -1,-2 									"/>
								</defs>
								<clipPath id="SVGID_87_">
									<use xlink:href="#SVGID_85_"  style="overflow:visible;"/>
								</clipPath>
								<clipPath id="SVGID_88_" class="st38">
									<use xlink:href="#SVGID_86_"  style="overflow:visible;"/>
								</clipPath>
								
									<linearGradient id="SVGID_89_" gradientUnits="userSpaceOnUse" x1="2649.0725" y1="2922.1001" x2="2721.176" y2="2857.2576" gradientTransform="matrix(-0.8054 -0.5928 0.5928 -0.8054 480.9632 4109.6001)">
									<stop  offset="4.989920e-03" style="stop-color:#000000"/>
									<stop  offset="1" style="stop-color:#E6E6E6"/>
								</linearGradient>
								<polygon class="st39" points="38.6,181.8 59.8,197.3 61,195.7 39.8,180.1 								"/>
							</g>
						</g>
						
							<linearGradient id="SVGID_90_" gradientUnits="userSpaceOnUse" x1="2649.0725" y1="2922.1001" x2="2721.176" y2="2857.2576" gradientTransform="matrix(-0.8054 -0.5928 0.5928 -0.8054 480.9632 4109.6001)">
							<stop  offset="4.989920e-03" style="stop-color:#FFFFFF"/>
							<stop  offset="1" style="stop-color:#FFFFFF"/>
						</linearGradient>
						<polygon class="st40" points="38.6,181.8 59.8,197.3 61,195.7 39.8,180.1 						"/>
					</g>
					<g>
						<g>
							<defs>
								<polygon id="SVGID_91_" points="1,1 2,1 1,2 								"/>
							</defs>
							<defs>
								<polygon id="SVGID_92_" points="-1,-1 -2,-1 -1,-2 								"/>
							</defs>
							<clipPath id="SVGID_93_">
								<use xlink:href="#SVGID_91_"  style="overflow:visible;"/>
							</clipPath>
							<clipPath id="SVGID_94_" class="st41">
								<use xlink:href="#SVGID_92_"  style="overflow:visible;"/>
							</clipPath>
							
								<linearGradient id="SVGID_95_" gradientUnits="userSpaceOnUse" x1="2641.5479" y1="2936.4099" x2="2658.822" y2="2924.1987" gradientTransform="matrix(-0.8054 -0.5928 0.5928 -0.8054 480.9632 4109.6001)">
								<stop  offset="4.989920e-03" style="stop-color:#000000"/>
								<stop  offset="1" style="stop-color:#E6E6E6"/>
							</linearGradient>
							<polygon class="st42" points="55.7,189.2 57.4,190.4 74.5,167.1 72.9,165.9 							"/>
						</g>
					</g>
					
						<linearGradient id="SVGID_96_" gradientUnits="userSpaceOnUse" x1="2641.5479" y1="2936.4099" x2="2658.822" y2="2924.1987" gradientTransform="matrix(-0.8054 -0.5928 0.5928 -0.8054 480.9632 4109.6001)">
						<stop  offset="4.989920e-03" style="stop-color:#FFFFFF"/>
						<stop  offset="1" style="stop-color:#FFFFFF"/>
					</linearGradient>
					<polygon class="st43" points="55.7,189.2 57.4,190.4 74.5,167.1 72.9,165.9 					"/>
					<g>
						<g>
							<defs>
								<polygon id="SVGID_97_" points="1,1 2,1 1,2 								"/>
							</defs>
							<defs>
								<polygon id="SVGID_98_" points="-1,-1 -2,-1 -1,-2 								"/>
							</defs>
							<clipPath id="SVGID_99_">
								<use xlink:href="#SVGID_97_"  style="overflow:visible;"/>
							</clipPath>
							<clipPath id="SVGID_100_" class="st44">
								<use xlink:href="#SVGID_98_"  style="overflow:visible;"/>
							</clipPath>
							
								<linearGradient id="SVGID_101_" gradientUnits="userSpaceOnUse" x1="2657.1997" y1="3041.7222" x2="2695.177" y2="3014.4465" gradientTransform="matrix(-0.8054 -0.5928 0.5928 -0.8054 480.9632 4109.6001)">
								<stop  offset="4.989920e-03" style="stop-color:#000000"/>
								<stop  offset="1" style="stop-color:#E6E6E6"/>
							</linearGradient>
							<polygon class="st45" points="127.4,86.4 129.4,87.8 133.3,82.6 131.3,81.1 							"/>
						</g>
					</g>
					
						<linearGradient id="SVGID_102_" gradientUnits="userSpaceOnUse" x1="2657.1997" y1="3041.7222" x2="2695.177" y2="3014.4465" gradientTransform="matrix(-0.8054 -0.5928 0.5928 -0.8054 480.9632 4109.6001)">
						<stop  offset="4.989920e-03" style="stop-color:#FFFFFF"/>
						<stop  offset="1" style="stop-color:#FFFFFF"/>
					</linearGradient>
					<polygon class="st46" points="127.4,86.4 129.4,87.8 133.3,82.6 131.3,81.1 					"/>
					<g>
						<g>
							<defs>
								<polygon id="SVGID_103_" points="1,1 2,1 1,2 								"/>
							</defs>
							<defs>
								<polygon id="SVGID_104_" points="-1,-1 -2,-1 -1,-2 								"/>
							</defs>
							<clipPath id="SVGID_105_">
								<use xlink:href="#SVGID_103_"  style="overflow:visible;"/>
							</clipPath>
							<clipPath id="SVGID_106_" class="st47">
								<use xlink:href="#SVGID_104_"  style="overflow:visible;"/>
							</clipPath>
							
								<linearGradient id="SVGID_107_" gradientUnits="userSpaceOnUse" x1="2662.6672" y1="3041.6716" x2="2700.6445" y2="3014.396" gradientTransform="matrix(-0.8054 -0.5928 0.5928 -0.8054 480.9632 4109.6001)">
								<stop  offset="4.989920e-03" style="stop-color:#000000"/>
								<stop  offset="1" style="stop-color:#E6E6E6"/>
							</linearGradient>
							<polygon class="st48" points="123,83.1 125,84.6 128.8,79.3 126.9,77.9 							"/>
						</g>
					</g>
					
						<linearGradient id="SVGID_108_" gradientUnits="userSpaceOnUse" x1="2662.6672" y1="3041.6716" x2="2700.6445" y2="3014.396" gradientTransform="matrix(-0.8054 -0.5928 0.5928 -0.8054 480.9632 4109.6001)">
						<stop  offset="4.989920e-03" style="stop-color:#FFFFFF"/>
						<stop  offset="1" style="stop-color:#FFFFFF"/>
					</linearGradient>
					<polygon class="st49" points="123,83.1 125,84.6 128.8,79.3 126.9,77.9 					"/>
				</g>
				<g class="st50">
					<polygon class="st28" points="62.9,91.5 60.9,83.1 59.6,83.1 59,78 57.9,83.1 56,83.1 54,71.8 51.4,83.1 46.9,83.1 46.9,82.5 
						51.1,82.5 54.1,69.8 56.3,82.5 57.6,82.5 59,75.5 60,82.5 61.2,82.5 62.8,89.4 64,82.1 65.2,82.1 65.6,85 66.1,81.8 67.1,81.8 
						68.5,71.4 69.5,81.6 75.6,81.6 75.6,82.2 69.2,82.2 68.4,74.8 67.4,82.4 66.4,82.4 65.7,87.9 64.9,82.7 64.3,82.7 					"/>
				</g>
				<circle class="st51" cx="61.3" cy="79.6" r="22"/>
				<g class="st52">
					<g>
						<g>
							<g>
								<path class="st53" d="M148.7,98.3c-1.3,1.5-2.1,3.3-2.2,5.2c-1-0.1-2.3-0.5-3.2-1.6l-0.1,4.3c0,0,0.9-1.1,3.2-1.5
									c0.1,1.9,0.8,3.7,2.1,5.2c-0.8,0.8-2.5,2.3-4.8,2.1l3.4,3.5c0,0-0.3-2.1,2.2-4.7c1.5,1.3,3.3,2.1,5.2,2.2
									c-0.1,1-0.5,2.3-1.6,3.1h4.3c0,0-1.1-0.9-1.5-3.2c1.8-0.1,3.6-0.8,5.1-2.1c0.8,0.8,2.4,2.5,2.1,4.8l3.5-3.4
									c0,0-2.1,0.3-4.8-2.2c1.3-1.5,2-3.3,2.2-5.1c1,0.1,2.3,0.5,3.2,1.6l0.1-4.3c0,0-0.9,1.1-3.2,1.5c-0.1-1.9-0.8-3.7-2.1-5.2
									c0.8-0.8,2.5-2.4,4.8-2.1l-3.4-3.5c0,0,0.3,2.1-2.2,4.8c-1.5-1.3-3.3-2-5.2-2.2c0.1-1,0.5-2.3,1.6-3.2h-4.3
									c0,0,1.1,0.9,1.5,3.2c-1.8,0.1-3.6,0.8-5.1,2c-0.8-0.8-2.4-2.5-2.1-4.8l-3.5,3.4C144,96.1,146,95.8,148.7,98.3z"/>
								<path class="st53" d="M143.3,101.8c0.2,0,0.4,1,0.4,2.1s-0.2,2.1-0.4,2.1s-0.4-1-0.4-2.1
									C142.9,102.8,143.1,101.8,143.3,101.8z"/>
							</g>
							<path class="st53" d="M152,107.3c0.5-0.5,1.4-0.5,1.9,0s0.5,1.4,0,1.9s-1.4,0.5-1.9,0C151.4,108.7,151.4,107.8,152,107.3z"/>
							<circle class="st53" cx="154.8" cy="102.6" r="1.6"/>
							<path class="st53" d="M157,104.9c0.3-0.3,0.9-0.3,1.2,0s0.3,0.9,0,1.2c-0.3,0.3-0.9,0.3-1.2,0
								C156.7,105.7,156.7,105.2,157,104.9z"/>
							<path class="st53" d="M158,99.6c0.6-0.6,1.7-0.6,2.3,0s0.6,1.7,0,2.3c-0.6,0.6-1.7,0.6-2.3,0S157.3,100.2,158,99.6z"/>
							
								<ellipse transform="matrix(0.9661 -0.2583 0.2583 0.9661 -21.3726 42.3024)" class="st54" cx="150.3" cy="102.5" rx="0.9" ry="0.9"/>
							<path class="st53" d="M156.9,109.2c0.4-0.4,1-0.4,1.3,0c0.4,0.4,0.4,1,0,1.3c-0.4,0.4-1,0.4-1.3,0
								C156.5,110.2,156.5,109.6,156.9,109.2z"/>
							
								<ellipse transform="matrix(0.7132 -0.701 0.701 0.7132 -37.9572 134.605)" class="st54" cx="145.5" cy="113.7" rx="0.5" ry="2.4"/>
							<path class="st53" d="M166.6,96.3c-0.2,0.2-1.1-0.5-2.1-1.4c-0.9-1-1.6-1.9-1.4-2.1c0.2-0.2,1.1,0.5,2.1,1.4
								C166.2,95.2,166.8,96.2,166.6,96.3z"/>
							<path class="st53" d="M163,115.6c-0.2-0.2,0.5-1.1,1.4-2.1c1-0.9,1.9-1.6,2.1-1.4s-0.5,1.1-1.4,2.1
								C164.1,115.1,163.2,115.8,163,115.6z"/>
							<path class="st53" d="M147.5,92.7c0.2,0.2-0.5,1.1-1.4,2c-1,0.9-1.9,1.5-2.1,1.4c-0.2-0.2,0.5-1.1,1.4-2
								C146.4,93.1,147.3,92.5,147.5,92.7z"/>
							
								<ellipse transform="matrix(8.606840e-03 -1 1 8.606840e-03 37.7717 270.178)" class="st55" cx="155.1" cy="116" rx="0.4" ry="2.1"/>
							<path class="st53" d="M157.4,92.2c0,0.2-1,0.4-2.1,0.4c-1.2,0-2.1-0.2-2.1-0.4c0-0.2,1-0.4,2.1-0.4
								C156.5,91.8,157.4,92,157.4,92.2z"/>
							<path class="st53" d="M167.1,106.5c-0.2,0-0.4-1-0.4-2.1c0-1.2,0.2-2.1,0.4-2.1s0.4,1,0.4,2.1S167.3,106.5,167.1,106.5z"/>
						</g>
						<path class="st53" d="M152.2,98.7c0.3-0.3,0.8-0.3,1.2,0c0.3,0.3,0.3,0.8,0,1.2c-0.3,0.3-0.8,0.3-1.2,0
							C151.9,99.6,151.9,99,152.2,98.7z"/>
					</g>
					<g class="st56">
						<g>
							<g>
								<path class="st28" d="M148.7,98.3c-1.3,1.5-2.1,3.3-2.2,5.2c-1-0.1-2.3-0.5-3.2-1.6l-0.1,4.3c0,0,0.9-1.1,3.2-1.5
									c0.1,1.9,0.8,3.7,2.1,5.2c-0.8,0.8-2.5,2.3-4.8,2.1l3.4,3.5c0,0-0.3-2.1,2.2-4.7c1.5,1.3,3.3,2.1,5.2,2.2
									c-0.1,1-0.5,2.3-1.6,3.1h4.3c0,0-1.1-0.9-1.5-3.2c1.8-0.1,3.6-0.8,5.1-2.1c0.8,0.8,2.4,2.5,2.1,4.8l3.5-3.4
									c0,0-2.1,0.3-4.8-2.2c1.3-1.5,2-3.3,2.2-5.1c1,0.1,2.3,0.5,3.2,1.6l0.1-4.3c0,0-0.9,1.1-3.2,1.5c-0.1-1.9-0.8-3.7-2.1-5.2
									c0.8-0.8,2.5-2.4,4.8-2.1l-3.4-3.5c0,0,0.3,2.1-2.2,4.8c-1.5-1.3-3.3-2-5.2-2.2c0.1-1,0.5-2.3,1.6-3.2h-4.3
									c0,0,1.1,0.9,1.5,3.2c-1.8,0.1-3.6,0.8-5.1,2c-0.8-0.8-2.4-2.5-2.1-4.8l-3.5,3.4C144,96.1,146,95.8,148.7,98.3z"/>
								<path class="st28" d="M143.3,101.8c0.2,0,0.4,1,0.4,2.1s-0.2,2.1-0.4,2.1s-0.4-1-0.4-2.1
									C142.9,102.8,143.1,101.8,143.3,101.8z"/>
							</g>
							<path class="st28" d="M152,107.3c0.5-0.5,1.4-0.5,1.9,0s0.5,1.4,0,1.9s-1.4,0.5-1.9,0C151.4,108.7,151.4,107.8,152,107.3z"/>
							<circle class="st28" cx="154.8" cy="102.6" r="1.6"/>
							<path class="st28" d="M157,104.9c0.3-0.3,0.9-0.3,1.2,0s0.3,0.9,0,1.2c-0.3,0.3-0.9,0.3-1.2,0
								C156.7,105.7,156.7,105.2,157,104.9z"/>
							<path class="st28" d="M158,99.6c0.6-0.6,1.7-0.6,2.3,0s0.6,1.7,0,2.3c-0.6,0.6-1.7,0.6-2.3,0S157.3,100.2,158,99.6z"/>
							
								<ellipse transform="matrix(0.9661 -0.2583 0.2583 0.9661 -21.3726 42.3024)" class="st28" cx="150.3" cy="102.5" rx="0.9" ry="0.9"/>
							<path class="st28" d="M156.9,109.2c0.4-0.4,1-0.4,1.3,0c0.4,0.4,0.4,1,0,1.3c-0.4,0.4-1,0.4-1.3,0
								C156.5,110.2,156.5,109.6,156.9,109.2z"/>
							
								<ellipse transform="matrix(0.7132 -0.701 0.701 0.7132 -37.9572 134.605)" class="st28" cx="145.5" cy="113.7" rx="0.5" ry="2.4"/>
							<path class="st28" d="M166.6,96.3c-0.2,0.2-1.1-0.5-2.1-1.4c-0.9-1-1.6-1.9-1.4-2.1c0.2-0.2,1.1,0.5,2.1,1.4
								C166.2,95.2,166.8,96.2,166.6,96.3z"/>
							<path class="st28" d="M163,115.6c-0.2-0.2,0.5-1.1,1.4-2.1c1-0.9,1.9-1.6,2.1-1.4s-0.5,1.1-1.4,2.1
								C164.1,115.1,163.2,115.8,163,115.6z"/>
							<path class="st28" d="M147.5,92.7c0.2,0.2-0.5,1.1-1.4,2c-1,0.9-1.9,1.5-2.1,1.4c-0.2-0.2,0.5-1.1,1.4-2
								C146.4,93.1,147.3,92.5,147.5,92.7z"/>
							
								<ellipse transform="matrix(8.606840e-03 -1 1 8.606840e-03 37.7717 270.178)" class="st28" cx="155.1" cy="116" rx="0.4" ry="2.1"/>
							<path class="st28" d="M157.4,92.2c0,0.2-1,0.4-2.1,0.4c-1.2,0-2.1-0.2-2.1-0.4c0-0.2,1-0.4,2.1-0.4
								C156.5,91.8,157.4,92,157.4,92.2z"/>
							<path class="st28" d="M167.1,106.5c-0.2,0-0.4-1-0.4-2.1c0-1.2,0.2-2.1,0.4-2.1s0.4,1,0.4,2.1S167.3,106.5,167.1,106.5z"/>
						</g>
						<path class="st28" d="M152.2,98.7c0.3-0.3,0.8-0.3,1.2,0c0.3,0.3,0.3,0.8,0,1.2c-0.3,0.3-0.8,0.3-1.2,0
							C151.9,99.6,151.9,99,152.2,98.7z"/>
					</g>
				</g>
				<path class="st57" d="M26.7,42.9c0,0,3.2-1.6,9.3,5.1"/>
				<g>
					
						<linearGradient id="SVGID_109_" gradientUnits="userSpaceOnUse" x1="-488.4828" y1="-343.1976" x2="-499.216" y2="-351.4725" gradientTransform="matrix(-0.9997 -2.490000e-02 2.490000e-02 -0.9997 -383.0686 -140.549)">
						<stop  offset="1.341370e-03" style="stop-color:#FFF4DE"/>
						<stop  offset="1" style="stop-color:#D26666"/>
					</linearGradient>
					<path class="st58" d="M104,222.7l0.8-1.2c-0.1,0-0.1,0-0.2-0.1c0,0-0.1-4-1.9-3.6C100.9,218.3,101.9,221.9,104,222.7z"/>
					
						<linearGradient id="SVGID_110_" gradientUnits="userSpaceOnUse" x1="-385.6925" y1="-212.0176" x2="-383.5248" y2="-214.3967" gradientTransform="matrix(-0.9933 0.1153 -0.1153 -0.9933 -303.823 51.8763)">
						<stop  offset="1.341370e-03" style="stop-color:#FFF4DE"/>
						<stop  offset="1" style="stop-color:#D26666"/>
					</linearGradient>
					<path class="st59" d="M103.9,217.7c0,0,1,1,0.4,1.5c-0.6,0.6-1.7,1.1-1.9,0.6c-0.2-0.5-0.4-1.4-0.4-1.4
						S102.6,217.3,103.9,217.7z"/>
					
						<linearGradient id="SVGID_111_" gradientUnits="userSpaceOnUse" x1="-494.8521" y1="-344.8376" x2="-496.7709" y2="-352.6328" gradientTransform="matrix(-0.9997 -2.490000e-02 2.490000e-02 -0.9997 -383.0686 -140.549)">
						<stop  offset="1.341370e-03" style="stop-color:#FFF4DE"/>
						<stop  offset="1" style="stop-color:#D26666"/>
					</linearGradient>
					<path class="st60" d="M104.4,221.5c0,0,0.7-1.8,0-2s-1.7,0.6-1.4,0.7c0.3,0.1,1-0.4,1-0.4s-0.7,1.1-0.5,1.7
						C103.8,222.1,104.4,221.5,104.4,221.5z"/>
					<g>
						<g>
							<g>
								<defs>
									<polygon id="SVGID_112_" points="1,1 2,1 1,2 									"/>
								</defs>
								<defs>
									<polygon id="SVGID_113_" points="-1,-1 -2,-1 -1,-2 									"/>
								</defs>
								<clipPath id="SVGID_114_">
									<use xlink:href="#SVGID_112_"  style="overflow:visible;"/>
								</clipPath>
								<clipPath id="SVGID_115_" class="st61">
									<use xlink:href="#SVGID_113_"  style="overflow:visible;"/>
								</clipPath>
								
									<linearGradient id="SVGID_116_" gradientUnits="userSpaceOnUse" x1="-866.0416" y1="-635.8839" x2="-811.5138" y2="-635.8839" gradientTransform="matrix(-0.9305 -0.3663 0.3663 -0.9305 -434.3311 -705.3876)">
									<stop  offset="4.989920e-03" style="stop-color:#000000"/>
									<stop  offset="1" style="stop-color:#E6E6E6"/>
								</linearGradient>
								<path class="st62" d="M100.8,157.8l-21,53.4c-0.9,2.2,0.2,4.6,2.4,5.5l33.4,13.2c2.2,0.9,4.6-0.2,5.5-2.4l21-53.4
									c0.7-1.9,0-4-1.6-5.1c-0.2-0.2-0.5-0.3-0.8-0.4l-33.4-13.2C104.1,154.6,101.7,155.6,100.8,157.8z"/>
							</g>
						</g>
						
							<linearGradient id="SVGID_117_" gradientUnits="userSpaceOnUse" x1="-866.0416" y1="-635.8839" x2="-811.5138" y2="-635.8839" gradientTransform="matrix(-0.9305 -0.3663 0.3663 -0.9305 -434.3311 -705.3876)">
							<stop  offset="4.989920e-03" style="stop-color:#FFFFFF"/>
							<stop  offset="1" style="stop-color:#FFFFFF"/>
						</linearGradient>
						<path class="st63" d="M100.8,157.8l-21,53.4c-0.9,2.2,0.2,4.6,2.4,5.5l33.4,13.2c2.2,0.9,4.6-0.2,5.5-2.4l21-53.4
							c0.7-1.9,0-4-1.6-5.1c-0.2-0.2-0.5-0.3-0.8-0.4l-33.4-13.2C104.1,154.6,101.7,155.6,100.8,157.8z"/>
						<g>
							<g>
								<defs>
									<polygon id="SVGID_118_" points="1,1 2,1 1,2 									"/>
								</defs>
								<defs>
									<polygon id="SVGID_119_" points="-1,-1 -2,-1 -1,-2 									"/>
								</defs>
								<clipPath id="SVGID_120_">
									<use xlink:href="#SVGID_118_"  style="overflow:visible;"/>
								</clipPath>
								<clipPath id="SVGID_121_" class="st64">
									<use xlink:href="#SVGID_119_"  style="overflow:visible;"/>
								</clipPath>
								
									<linearGradient id="SVGID_122_" gradientUnits="userSpaceOnUse" x1="-853.655" y1="-599.6969" x2="-821.8471" y2="-599.6969" gradientTransform="matrix(-0.9305 -0.3663 0.3663 -0.9305 -434.3311 -705.3876)">
									<stop  offset="4.989920e-03" style="stop-color:#000000"/>
									<stop  offset="1" style="stop-color:#E6E6E6"/>
								</linearGradient>
								<polygon class="st65" points="110.9,157.3 135,166.8 137.4,160.6 113.4,151.2 								"/>
							</g>
						</g>
						
							<linearGradient id="SVGID_123_" gradientUnits="userSpaceOnUse" x1="-853.655" y1="-599.6969" x2="-821.8471" y2="-599.6969" gradientTransform="matrix(-0.9305 -0.3663 0.3663 -0.9305 -434.3311 -705.3876)">
							<stop  offset="4.989920e-03" style="stop-color:#FFFFFF"/>
							<stop  offset="1" style="stop-color:#FFFFFF"/>
						</linearGradient>
						<polygon class="st66" points="110.9,157.3 135,166.8 137.4,160.6 113.4,151.2 						"/>
						
							<rect x="122.3" y="138.9" transform="matrix(0.3663 -0.9305 0.9305 0.3663 -63.2835 215.0323)" class="st23" width="7.9" height="30.2"/>
						<g>
							<path class="st3" d="M99.7,221.3L99.7,221.3c10.2,4,21.8-1,25.8-11.2l9.5-24.2l-37-14.6l-9.5,24.2
								C84.4,205.7,89.4,217.2,99.7,221.3z"/>
						</g>
						<g>
							
								<radialGradient id="SVGID_124_" cx="188.5381" cy="-65.2976" r="151.0782" gradientTransform="matrix(0.9303 0.3669 0.3669 -0.9303 -44.8372 26.9703)" gradientUnits="userSpaceOnUse">
								<stop  offset="0" style="stop-color:#F9F9F9"/>
								<stop  offset="0.4113" style="stop-color:#49BCBB"/>
								<stop  offset="1" style="stop-color:#31439A"/>
							</radialGradient>
							<circle class="st67" cx="100.8" cy="187.9" r="4"/>
							
								<radialGradient id="SVGID_125_" cx="188.5381" cy="-65.2976" r="151.0782" gradientTransform="matrix(0.9303 0.3669 0.3669 -0.9303 -44.8372 26.9703)" gradientUnits="userSpaceOnUse">
								<stop  offset="0" style="stop-color:#F9F9F9"/>
								<stop  offset="0.4113" style="stop-color:#49BCBB"/>
								<stop  offset="1" style="stop-color:#31439A"/>
							</radialGradient>
							<circle class="st68" cx="103.5" cy="198.1" r="2.3"/>
						</g>
						<g>
							<g>
								<defs>
									<polygon id="SVGID_126_" points="1,1 2,1 1,2 									"/>
								</defs>
								<defs>
									<polygon id="SVGID_127_" points="-1,-1 -2,-1 -1,-2 									"/>
								</defs>
								<clipPath id="SVGID_128_">
									<use xlink:href="#SVGID_126_"  style="overflow:visible;"/>
								</clipPath>
								<clipPath id="SVGID_129_" class="st69">
									<use xlink:href="#SVGID_127_"  style="overflow:visible;"/>
								</clipPath>
								
									<linearGradient id="SVGID_130_" gradientUnits="userSpaceOnUse" x1="-839.9486" y1="-635.9398" x2="-870.5126" y2="-635.9398" gradientTransform="matrix(-0.9305 -0.3663 0.3663 -0.9305 -434.3311 -705.3876)">
									<stop  offset="4.989920e-03" style="stop-color:#000000"/>
									<stop  offset="1" style="stop-color:#E6E6E6"/>
								</linearGradient>
								<path class="st70" d="M134.7,166.7l-24.1,61.2l5,2c2.2,0.9,4.6-0.2,5.5-2.4l21-53.4c0.7-1.9,0-4-1.6-5.1L134.7,166.7z"/>
							</g>
						</g>
						
							<linearGradient id="SVGID_131_" gradientUnits="userSpaceOnUse" x1="-839.9486" y1="-635.9398" x2="-870.5126" y2="-635.9398" gradientTransform="matrix(-0.9305 -0.3663 0.3663 -0.9305 -434.3311 -705.3876)">
							<stop  offset="4.989920e-03" style="stop-color:#FFFFFF"/>
							<stop  offset="1" style="stop-color:#FFFFFF"/>
						</linearGradient>
						<path class="st71" d="M134.7,166.7l-24.1,61.2l5,2c2.2,0.9,4.6-0.2,5.5-2.4l21-53.4c0.7-1.9,0-4-1.6-5.1L134.7,166.7z"/>
						<g>
							<g>
								<defs>
									<polygon id="SVGID_132_" points="1,1 2,1 1,2 									"/>
								</defs>
								<defs>
									<polygon id="SVGID_133_" points="-1,-1 -2,-1 -1,-2 									"/>
								</defs>
								<clipPath id="SVGID_134_">
									<use xlink:href="#SVGID_132_"  style="overflow:visible;"/>
								</clipPath>
								<clipPath id="SVGID_135_" class="st72">
									<use xlink:href="#SVGID_133_"  style="overflow:visible;"/>
								</clipPath>
								
									<linearGradient id="SVGID_136_" gradientUnits="userSpaceOnUse" x1="-822.025" y1="-635.945" x2="-880.4192" y2="-635.945" gradientTransform="matrix(-0.9305 -0.3663 0.3663 -0.9305 -434.3311 -705.3876)">
									<stop  offset="4.989920e-03" style="stop-color:#000000"/>
									<stop  offset="1" style="stop-color:#E6E6E6"/>
								</linearGradient>
								<polygon class="st73" points="92.2,220.7 110.6,227.9 117.6,210 134.7,166.7 116.3,159.5 								"/>
							</g>
						</g>
						
							<linearGradient id="SVGID_137_" gradientUnits="userSpaceOnUse" x1="-822.025" y1="-635.945" x2="-880.4192" y2="-635.945" gradientTransform="matrix(-0.9305 -0.3663 0.3663 -0.9305 -434.3311 -705.3876)">
							<stop  offset="4.989920e-03" style="stop-color:#FFFFFF"/>
							<stop  offset="1" style="stop-color:#FFFFFF"/>
						</linearGradient>
						<polygon class="st74" points="92.2,220.7 110.6,227.9 117.6,210 134.7,166.7 116.3,159.5 						"/>
						
							<rect x="125.7" y="136.4" transform="matrix(0.3663 -0.9305 0.9305 0.3663 -60.4557 214.3083)" class="st24" width="2.9" height="30.2"/>
					</g>
				</g>
			</g>
		</g>
	</g>
	<g>
		<path class="st75" d="M254,133.9l10.3-36.5H279l-18,52.4h-14.2l-18-52.4h14.9L254,133.9z"/>
		<path class="st75" d="M306,138h-14.9l-3.3,11.8h-13.1l16.6-52.4h14.8l17.2,52.4h-14L306,138z M293.4,127.6h10.3l-5.1-17.4
			L293.4,127.6z"/>
		<path class="st75" d="M348,150.5c-4,0-7.4-0.5-10.2-1.4c-2.8-1-5.1-2.4-6.8-4.4c-1.8-2-3.1-4.4-3.9-7.4s-1.2-6.5-1.2-10.5v-5.3
			c0-3.4,0.4-6.6,1.1-9.6c0.8-3,2-5.6,3.8-7.9c1.8-2.2,4.2-4,7.2-5.3s6.7-2,11.3-2c2.7,0,5.2,0.2,7.4,0.6c2.3,0.4,4.1,0.9,5.5,1.4
			l-2.2,10.2c-1.2-0.4-2.6-0.7-4-1c-1.4-0.2-3-0.4-4.9-0.4c-2,0-3.7,0.2-5.2,0.6c-1.4,0.4-2.6,1.2-3.5,2.2c-0.9,1.1-1.5,2.5-2,4.3
			c-0.4,1.8-0.6,4.1-0.6,6.8v4.7c0,2.8,0.2,5.1,0.5,6.8c0.3,1.8,0.9,3.1,1.8,4.1s2,1.7,3.5,2c1.4,0.4,3.3,0.6,5.6,0.6
			c1.5,0,3.2-0.1,4.9-0.2c1.8-0.1,3.7-0.4,5.8-0.7l-2.1,10.4c-2.1,0.5-4.2,0.8-6.2,1C351.8,150.4,349.8,150.5,348,150.5z"/>
		<path class="st75" d="M383.8,149.8H370V97.4h13.8V149.8z"/>
		<path class="st75" d="M405.1,97.4l17.9,29.4V97.4h12.5v52.4h-11.6L406,120.3v29.4h-12.5V97.4H405.1z"/>
		<path class="st75" d="M472.1,138h-14.9l-3.3,11.8h-13.1l16.6-52.4h14.8l17.2,52.4h-14L472.1,138z M459.5,127.6h10.3l-5.1-17.4
			L459.5,127.6z"/>
		<path class="st75" d="M521.4,159.7c0,2.8-1.1,5-3.2,6.6c-2.2,1.6-5.1,2.4-8.8,2.4c-1.5,0-3-0.1-4.5-0.4c-1.5-0.2-2.6-0.5-3.3-0.8
			l1.8-6.4c0.8,0.2,1.7,0.3,2.6,0.4c0.9,0.1,1.6,0.1,2.1,0.1c2.9,0,4.3-0.8,4.3-2.3c0-0.9-0.6-1.5-1.8-1.8c-1.2-0.3-3-0.5-5.3-0.7
			l1.7-6.9c-5.4-1-9.3-3.4-11.6-7.3c-2.3-3.8-3.5-9.1-3.5-15.9v-5.3c0-3.4,0.4-6.6,1.1-9.6c0.8-3,2-5.6,3.8-7.9
			c1.8-2.2,4.2-4,7.2-5.3s6.7-2,11.3-2c2.7,0,5.2,0.2,7.4,0.6c2.3,0.4,4.1,0.9,5.5,1.4l-2.2,10.2c-1.2-0.4-2.6-0.7-4-1
			c-1.4-0.2-3-0.4-4.9-0.4c-2,0-3.7,0.2-5.2,0.6c-1.4,0.4-2.6,1.2-3.5,2.2c-0.9,1.1-1.5,2.5-2,4.3c-0.4,1.8-0.6,4.1-0.6,6.8v4.7
			c0,2.8,0.2,5.1,0.5,6.8s0.9,3.1,1.8,4.1s2,1.7,3.5,2c1.4,0.4,3.3,0.6,5.6,0.6c1.5,0,3.2-0.1,4.9-0.2c1.8-0.1,3.7-0.4,5.8-0.7
			l-2.1,10.4c-2.1,0.5-4.2,0.8-6.2,1s-4,0.3-5.8,0.3l-0.6,2.4c2.5,0.2,4.4,0.9,5.8,2.1C520.7,156.1,521.4,157.7,521.4,159.7z"/>
		<path class="st75" d="M563,138h-14.9l-3.3,11.8h-13.1l16.6-52.4h14.8l17.2,52.4h-14L563,138z M571,81.5c0,4.3-0.8,7.3-2.5,9.2
			c-1.7,1.9-4,2.8-6.9,2.8c-1.1,0-2.2-0.2-3.1-0.5c-1-0.3-2-0.9-3-1.5l-1-0.6c-0.4-0.2-1-0.5-1.6-0.9c-0.6-0.3-1.2-0.5-1.7-0.5
			c-0.7,0-1.3,0.3-1.7,0.9c-0.5,0.6-0.7,1.5-0.7,2.8h-7.3c0-4.3,0.8-7.3,2.5-9.2c1.7-1.9,4-2.8,6.9-2.8c1.1,0,2.2,0.2,3.1,0.5
			c1,0.3,2,0.9,3,1.5l1,0.6c0.4,0.2,1,0.5,1.6,0.9c0.6,0.3,1.2,0.5,1.7,0.5c0.7,0,1.3-0.3,1.7-0.8c0.5-0.6,0.7-1.5,0.7-2.8L571,81.5
			L571,81.5z M550.4,127.6h10.3l-5.1-17.4L550.4,127.6z"/>
		<path class="st75" d="M605.3,96.1c4.6,0,8.3,0.6,11.2,1.9s5.2,3,6.8,5.2s2.8,4.8,3.4,7.8c0.6,3,0.9,6.1,0.9,9.5v6
			c0,3.6-0.3,6.9-1,9.9s-1.9,5.6-3.6,7.7s-4,3.8-6.8,5c-2.9,1.2-6.5,1.8-10.9,1.8c-4.6,0-8.3-0.7-11.2-2s-5.2-3.1-6.8-5.3
			c-1.7-2.2-2.8-4.8-3.5-7.8c-0.6-3-1-6.1-1-9.5v-6c0-3.6,0.4-7,1.1-10c0.7-3,1.9-5.6,3.7-7.7c1.7-2.1,4-3.8,6.9-5
			C597.4,96.7,601,96.1,605.3,96.1z M605.4,140c1.2,0,2.3-0.2,3.3-0.5s1.9-1,2.7-1.9s1.3-2.3,1.8-4s0.6-3.9,0.6-6.7v-6.6
			c0-2.8-0.2-5.1-0.6-6.8s-0.9-3-1.6-4c-0.7-0.9-1.6-1.6-2.6-1.9c-1.1-0.3-2.2-0.5-3.6-0.5s-2.5,0.2-3.6,0.5s-2,1-2.7,2
			s-1.3,2.3-1.7,4s-0.6,3.9-0.6,6.7v6.6c0,2.8,0.2,5.1,0.6,6.8c0.4,1.7,1,3,1.7,4c0.7,0.9,1.6,1.6,2.7,1.9
			C602.8,139.8,604,140,605.4,140z"/>
	</g>
	<g>
		<path class="st76" d="M238.4,186.3c-1.6,0-2.9-0.2-3.9-0.6c-1-0.4-1.8-0.9-2.4-1.7c-0.6-0.7-1-1.6-1.2-2.7
			c-0.2-1.1-0.3-2.3-0.3-3.8v-1.9c0-1.4,0.1-2.6,0.4-3.7c0.2-1.1,0.7-2,1.3-2.8s1.5-1.3,2.5-1.7s2.4-0.6,3.9-0.6
			c0.8,0,1.5,0.1,2.2,0.2c0.7,0.1,1.3,0.3,1.7,0.4l-0.5,2.1c-0.4-0.1-0.9-0.2-1.5-0.3s-1.2-0.1-1.7-0.1c-1,0-1.9,0.1-2.6,0.3
			c-0.7,0.2-1.3,0.5-1.7,1.1c-0.4,0.5-0.8,1.2-1,2.1c-0.2,0.9-0.3,2-0.3,3.3v1.8c0,1.3,0.1,2.4,0.3,3.2s0.5,1.5,0.9,2s1,0.8,1.7,1
			s1.6,0.3,2.7,0.3c0.5,0,1.1,0,1.8-0.1s1.3-0.2,1.8-0.2l-0.4,2.1c-0.6,0.1-1.1,0.3-1.8,0.3S239,186.3,238.4,186.3z"/>
		<path class="st76" d="M244.9,175.4c0-1.3,0.1-2.5,0.3-3.6s0.6-2,1.2-2.7c0.6-0.8,1.3-1.4,2.3-1.8c1-0.4,2.2-0.6,3.7-0.6
			s2.7,0.2,3.7,0.6c1,0.4,1.7,1,2.3,1.7s0.9,1.7,1.1,2.7s0.3,2.3,0.3,3.6v2.3c0,1.3-0.1,2.5-0.3,3.6c-0.2,1.1-0.6,2-1.2,2.7
			c-0.6,0.8-1.3,1.4-2.3,1.8s-2.2,0.6-3.7,0.6s-2.7-0.2-3.7-0.6s-1.7-1-2.3-1.7s-0.9-1.7-1.1-2.7c-0.2-1.1-0.3-2.3-0.3-3.6
			L244.9,175.4L244.9,175.4z M257,175.4c0-1.3-0.1-2.4-0.3-3.2c-0.2-0.8-0.5-1.5-0.9-2s-0.9-0.8-1.5-1s-1.3-0.3-2.1-0.3
			s-1.5,0.1-2.1,0.3s-1.1,0.5-1.5,1s-0.7,1.1-0.9,2s-0.3,1.9-0.3,3.2v2.3c0,1.3,0.1,2.4,0.3,3.2s0.5,1.5,0.9,2s0.9,0.8,1.5,1
			s1.3,0.3,2.1,0.3s1.5-0.1,2.1-0.3s1.1-0.5,1.5-1s0.7-1.1,0.9-2c0.2-0.9,0.3-1.9,0.3-3.2V175.4z"/>
		<path class="st76" d="M266.2,167l8.9,14.7V167h2.5v19h-2.4l-8.9-14.7V186h-2.5v-19H266.2z"/>
		<path class="st76" d="M295.3,167l-0.3,2.2h-5.8V186h-2.6v-16.8h-6.1l0.3-2.2H295.3z"/>
		<path class="st76" d="M311.1,173c0,1.3-0.3,2.4-0.9,3.3s-1.5,1.5-2.8,1.9l4.3,7.9h-3l-4.1-7.6h-3.9v7.6h-2.6v-19h7.4
			c1,0,1.8,0.1,2.5,0.4c0.7,0.3,1.3,0.7,1.7,1.1s0.8,1.1,1,1.7c0.2,0.7,0.3,1.4,0.3,2.1v0.6H311.1z M300.8,176.2h4
			c1.2,0,2.1-0.3,2.7-0.8s0.9-1.3,0.9-2.5v-0.3c0-1.1-0.3-2-0.8-2.5c-0.6-0.6-1.4-0.8-2.6-0.8h-4.2V176.2z"/>
		<path class="st76" d="M325.2,180.7h-7.3l-1.8,5.3h-2.7l6.6-19h2.9l6.7,19h-2.8L325.2,180.7z M318.7,178.5h5.9l-2.9-8.9
			L318.7,178.5z"/>
		<path class="st76" d="M346.9,186.3c-1.6,0-2.9-0.2-3.9-0.6c-1-0.4-1.8-0.9-2.4-1.7c-0.6-0.7-1-1.6-1.2-2.7
			c-0.2-1.1-0.3-2.3-0.3-3.8v-1.9c0-1.4,0.1-2.6,0.4-3.7c0.2-1.1,0.7-2,1.3-2.8c0.6-0.8,1.5-1.3,2.5-1.7s2.4-0.6,3.9-0.6
			c0.8,0,1.5,0.1,2.2,0.2s1.3,0.3,1.7,0.4l-0.5,2.1c-0.4-0.1-0.9-0.2-1.5-0.3s-1.2-0.1-1.7-0.1c-1,0-1.9,0.1-2.6,0.3
			s-1.3,0.5-1.7,1.1s-0.8,1.2-1,2.1c-0.2,0.9-0.3,2-0.3,3.3v1.8c0,1.3,0.1,2.4,0.3,3.2s0.5,1.5,0.9,2s1,0.8,1.7,1s1.6,0.3,2.7,0.3
			c0.5,0,1.1,0,1.8-0.1s1.3-0.2,1.8-0.2l-0.4,2.1c-0.6,0.1-1.1,0.3-1.8,0.3C348.1,186.3,347.5,186.3,346.9,186.3z"/>
		<path class="st76" d="M353.4,175.4c0-1.3,0.1-2.5,0.3-3.6c0.2-1.1,0.6-2,1.2-2.7c0.6-0.8,1.3-1.4,2.3-1.8c1-0.4,2.2-0.6,3.7-0.6
			s2.7,0.2,3.7,0.6c1,0.4,1.7,1,2.3,1.7s0.9,1.7,1.1,2.7s0.3,2.3,0.3,3.6v2.3c0,1.3-0.1,2.5-0.3,3.6s-0.6,2-1.2,2.7
			c-0.6,0.8-1.3,1.4-2.3,1.8s-2.2,0.6-3.7,0.6s-2.7-0.2-3.7-0.6c-1-0.4-1.7-1-2.3-1.7c-0.6-0.8-0.9-1.7-1.1-2.7
			c-0.2-1.1-0.3-2.3-0.3-3.6V175.4z M365.5,175.4c0-1.3-0.1-2.4-0.3-3.2c-0.2-0.8-0.5-1.5-0.9-2s-0.9-0.8-1.5-1s-1.3-0.3-2.1-0.3
			c-0.8,0-1.5,0.1-2.1,0.3s-1.1,0.5-1.5,1s-0.7,1.1-0.9,2c-0.2,0.8-0.3,1.9-0.3,3.2v2.3c0,1.3,0.1,2.4,0.3,3.2s0.5,1.5,0.9,2
			s0.9,0.8,1.5,1s1.3,0.3,2.1,0.3c0.8,0,1.5-0.1,2.1-0.3s1.1-0.5,1.5-1s0.7-1.1,0.9-2c0.2-0.8,0.3-1.9,0.3-3.2V175.4z"/>
		<path class="st76" d="M378.3,183.1l5.4-16.1h2.7l-6.7,19h-2.9l-6.7-19h2.9L378.3,183.1z"/>
		<path class="st76" d="M392,186h-2.7v-19h2.7V186z"/>
		<path class="st76" d="M396.5,167h6.2c1.6,0,2.9,0.2,3.9,0.6c1,0.4,1.8,1,2.5,1.8c0.6,0.7,1,1.6,1.3,2.7s0.4,2.2,0.4,3.4v2.1
			c0,1.2-0.1,2.4-0.4,3.4s-0.7,1.9-1.3,2.7c-0.6,0.7-1.5,1.3-2.5,1.7s-2.3,0.6-3.8,0.6h-6.2v-19H396.5z M399.2,183.8h3.3
			c0.9,0,1.7-0.1,2.4-0.3s1.3-0.6,1.7-1s0.8-1.1,1-2c0.2-0.8,0.3-1.8,0.3-3v-1.8c0-1.2-0.1-2.2-0.3-3s-0.6-1.5-1-2
			c-0.5-0.5-1-0.8-1.7-1.1c-0.7-0.2-1.5-0.3-2.4-0.3h-3.4v14.5H399.2z"/>
		<path class="st76" d="M413.9,179.4v-2.2h8.4v2.2H413.9z"/>
		<path class="st76" d="M426.3,186l0.3-2.2h4.1v-13.7l-4.6,1.6l0.1-2.1l4.8-1.9h2.4v16.1h4.1l-0.3,2.2L426.3,186L426.3,186z"/>
		<path class="st76" d="M445.5,184.1c0.8,0,1.5-0.1,2.2-0.3c0.6-0.2,1.1-0.5,1.6-1c0.4-0.4,0.7-1,0.9-1.7c0.2-0.7,0.3-1.6,0.3-2.6
			v-0.7c-0.5,0.6-1.1,1-1.8,1.3c-0.7,0.3-1.6,0.4-2.5,0.4c-1,0-1.8-0.1-2.5-0.4c-0.7-0.3-1.2-0.7-1.7-1.2c-0.4-0.5-0.7-1.1-0.9-1.8
			c-0.2-0.7-0.3-1.5-0.3-2.4v-0.3c0-2,0.5-3.5,1.6-4.5c1-1,2.5-1.5,4.5-1.5c1.2,0,2.2,0.2,3,0.5s1.4,0.8,1.9,1.4
			c0.5,0.6,0.8,1.3,0.9,2.1s0.3,1.7,0.3,2.7v3.3c0,3-0.6,5.2-1.7,6.7s-3,2.2-5.6,2.2c-0.8,0-1.5-0.1-2.2-0.2
			c-0.7-0.1-1.3-0.3-1.8-0.5l0.5-2c0.5,0.1,1,0.3,1.6,0.3C444.3,184,444.8,184.1,445.5,184.1z M450.4,173.6c0-1.4-0.3-2.4-0.8-3
			c-0.5-0.7-1.5-1-2.8-1c-1.2,0-2.1,0.3-2.6,0.8s-0.9,1.5-0.9,2.9v0.3c0,1.4,0.3,2.4,0.8,3s1.4,0.9,2.7,0.9c1.2,0,2.1-0.3,2.7-0.8
			s1-1.4,1-2.5v-0.6H450.4z"/>
	</g>
	<g>
		<path class="st23" d="M238,84c-1.5,0-2.7-0.2-3.7-0.5c-1-0.3-1.8-0.9-2.4-1.6c-0.6-0.7-1-1.5-1.3-2.6c-0.2-1-0.4-2.2-0.4-3.6v-1.9
			c0-1.2,0.1-2.4,0.4-3.4c0.2-1,0.7-1.9,1.3-2.7c0.6-0.8,1.4-1.4,2.4-1.8c1-0.4,2.3-0.6,3.8-0.6c0.9,0,1.7,0.1,2.4,0.2
			s1.3,0.3,1.8,0.5l-0.6,3c-0.4-0.1-0.9-0.2-1.4-0.3c-0.5-0.1-1.1-0.1-1.7-0.1c-0.8,0-1.5,0.1-2.1,0.2c-0.6,0.2-1,0.4-1.4,0.9
			c-0.4,0.4-0.6,1-0.8,1.7c-0.2,0.7-0.2,1.6-0.2,2.6v1.7c0,1.1,0.1,2,0.2,2.6c0.1,0.7,0.4,1.2,0.7,1.6c0.3,0.4,0.8,0.6,1.4,0.8
			c0.6,0.1,1.3,0.2,2.2,0.2c0.5,0,1.1,0,1.7-0.1c0.6-0.1,1.3-0.1,1.9-0.3l-0.6,3.1c-0.6,0.2-1.3,0.3-2,0.3S238.6,84,238,84z"/>
		<path class="st23" d="M255.1,79.2h-5.9l-1.4,4.5h-3.8l6-18.1h4.1l6.2,18.1h-4L255.1,79.2z M250.1,76.2h4.3l-2.1-7L250.1,76.2z"/>
		<path class="st23" d="M262.9,65.6h6.4c1.5,0,2.8,0.2,3.9,0.6c1,0.4,1.8,1,2.5,1.7c0.6,0.7,1,1.6,1.3,2.6c0.2,1,0.4,2.1,0.4,3.3
			v1.7c0,1.2-0.1,2.3-0.4,3.3c-0.3,1-0.7,1.9-1.3,2.6s-1.4,1.3-2.5,1.7c-1,0.4-2.3,0.6-3.9,0.6h-6.3V65.6z M266.8,80.5h2.1
			c0.7,0,1.4-0.1,1.9-0.3c0.6-0.2,1-0.5,1.4-0.9c0.4-0.4,0.6-0.9,0.8-1.6s0.3-1.5,0.3-2.5v-1.4c0-1-0.1-1.9-0.3-2.5
			s-0.5-1.2-0.8-1.6c-0.4-0.4-0.8-0.7-1.4-0.8c-0.6-0.2-1.2-0.2-1.9-0.2h-2.1V80.5z"/>
		<path class="st23" d="M289.7,79.2h-5.9l-1.4,4.5h-3.8l6-18.1h4.1l6.2,18.1h-4L289.7,79.2z M284.6,76.2h4.3l-2.1-7L284.6,76.2z"/>
		<path class="st23" d="M302.5,84c-1,0-2.1-0.1-3.1-0.2s-1.9-0.3-2.5-0.6l0.6-3c0.7,0.2,1.5,0.3,2.3,0.5c0.8,0.1,1.7,0.2,2.5,0.2
			c1.2,0,2.1-0.2,2.7-0.6c0.6-0.4,0.8-1,0.8-1.9c0-0.4-0.1-0.8-0.2-1c-0.1-0.3-0.3-0.5-0.5-0.6c-0.2-0.2-0.6-0.3-0.9-0.4
			c-0.4-0.1-0.8-0.2-1.3-0.3l-1.2-0.2c-0.6-0.1-1.1-0.2-1.7-0.4c-0.5-0.2-1-0.5-1.4-0.9c-0.4-0.4-0.8-0.9-1-1.5
			c-0.3-0.6-0.4-1.4-0.4-2.3c0-3.7,2.4-5.5,7.1-5.5c1,0,1.9,0.1,2.7,0.2c0.8,0.1,1.6,0.3,2.3,0.5l-0.6,3c-0.6-0.2-1.3-0.3-2-0.4
			c-0.7-0.1-1.5-0.2-2.3-0.2c-1.3,0-2.2,0.2-2.7,0.5s-0.8,0.9-0.8,1.7c0,0.6,0.2,1.1,0.6,1.5c0.4,0.3,1.1,0.6,2,0.7l1.2,0.2
			c0.6,0.1,1.2,0.2,1.8,0.4c0.6,0.2,1.1,0.5,1.6,0.9c0.5,0.4,0.9,0.9,1.2,1.5c0.3,0.6,0.4,1.5,0.4,2.5c0,2-0.6,3.4-1.8,4.3
			C306.6,83.5,304.8,84,302.5,84z"/>
		<path class="st23" d="M325.7,65.6l-0.4,3.2h-4.9v15h-3.9v-15h-5.3l0.4-3.2H325.7z"/>
		<path class="st23" d="M341.3,71.5c0,2.6-1.1,4.2-3.3,5l3.9,7.1h-4.2l-3.4-6.7h-2.4v6.7h-3.8V65.6h7.6c1,0,1.8,0.1,2.5,0.4
			c0.7,0.3,1.3,0.7,1.7,1.1c0.5,0.5,0.8,1.1,1,1.7c0.2,0.7,0.3,1.4,0.3,2.1V71.5z M331.9,74h3c0.9,0,1.5-0.2,2-0.6
			c0.4-0.4,0.6-1,0.6-1.9v-0.4c0-1.7-0.8-2.5-2.5-2.5h-3.1V74z"/>
		<path class="st23" d="M358.7,75.7c0,1.2-0.1,2.3-0.3,3.4c-0.2,1-0.6,1.9-1.2,2.6c-0.6,0.7-1.3,1.3-2.3,1.7c-1,0.4-2.2,0.6-3.7,0.6
			c-1.5,0-2.8-0.2-3.7-0.6c-1-0.4-1.7-1-2.3-1.7s-1-1.6-1.2-2.6c-0.2-1-0.3-2.2-0.3-3.4v-2.1c0-1.2,0.1-2.4,0.4-3.4
			c0.2-1,0.6-1.9,1.2-2.6c0.6-0.7,1.3-1.3,2.3-1.7c1-0.4,2.2-0.6,3.6-0.6c1.5,0,2.8,0.2,3.8,0.6s1.7,1,2.3,1.8
			c0.6,0.7,0.9,1.6,1.1,2.6c0.2,1,0.3,2.1,0.3,3.3V75.7z M347.7,75.8c0,1.1,0.1,2,0.2,2.6c0.1,0.7,0.4,1.2,0.7,1.6
			c0.3,0.4,0.7,0.6,1.1,0.8c0.4,0.1,1,0.2,1.6,0.2c0.6,0,1.1-0.1,1.5-0.2c0.4-0.1,0.8-0.4,1.1-0.8c0.3-0.4,0.5-0.9,0.7-1.6
			c0.2-0.7,0.2-1.5,0.2-2.6v-2.2c0-1.1-0.1-2-0.2-2.6c-0.1-0.7-0.4-1.2-0.7-1.6c-0.3-0.4-0.7-0.6-1.1-0.8c-0.4-0.1-1-0.2-1.6-0.2
			c-0.6,0-1.1,0.1-1.5,0.2c-0.4,0.1-0.8,0.4-1.1,0.8c-0.3,0.4-0.5,0.9-0.7,1.6c-0.2,0.7-0.2,1.5-0.2,2.6V75.8z"/>
		<path class="st23" d="M380.6,65.6l-0.4,3h-7.9V73h7.5l-0.4,3h-7.1v4.7h8.3l-0.4,3h-11.7V65.6H380.6z"/>
		<path class="st23" d="M388.5,84c-1,0-2.1-0.1-3.1-0.2c-1-0.2-1.9-0.3-2.5-0.6l0.6-3c0.7,0.2,1.5,0.3,2.3,0.5
			c0.8,0.1,1.7,0.2,2.5,0.2c1.2,0,2.1-0.2,2.7-0.6c0.6-0.4,0.8-1,0.8-1.9c0-0.4-0.1-0.8-0.2-1c-0.1-0.3-0.3-0.5-0.5-0.6
			c-0.2-0.2-0.6-0.3-0.9-0.4c-0.4-0.1-0.8-0.2-1.3-0.3l-1.2-0.2c-0.6-0.1-1.1-0.2-1.7-0.4c-0.5-0.2-1-0.5-1.4-0.9
			c-0.4-0.4-0.8-0.9-1-1.5s-0.4-1.4-0.4-2.3c0-3.7,2.4-5.5,7.1-5.5c1,0,1.9,0.1,2.7,0.2c0.8,0.1,1.6,0.3,2.3,0.5l-0.6,3
			c-0.6-0.2-1.3-0.3-2-0.4c-0.7-0.1-1.5-0.2-2.3-0.2c-1.3,0-2.2,0.2-2.7,0.5c-0.5,0.3-0.8,0.9-0.8,1.7c0,0.6,0.2,1.1,0.6,1.5
			s1.1,0.6,2,0.7l1.2,0.2c0.6,0.1,1.2,0.2,1.8,0.4c0.6,0.2,1.1,0.5,1.6,0.9c0.5,0.4,0.9,0.9,1.2,1.5c0.3,0.6,0.4,1.5,0.4,2.5
			c0,2-0.6,3.4-1.8,4.3S390.8,84,388.5,84z"/>
		<path class="st23" d="M411.7,65.6l-0.4,3.2h-4.9v15h-3.9v-15h-5.3l0.4-3.2H411.7z"/>
		<path class="st23" d="M421.8,79.2h-5.9l-1.4,4.5h-3.8l6-18.1h4.1l6.2,18.1h-4L421.8,79.2z M416.7,76.2h4.3l-2.1-7L416.7,76.2z"/>
		<path class="st23" d="M429.5,65.6h6.4c1.5,0,2.8,0.2,3.9,0.6s1.8,1,2.5,1.7c0.6,0.7,1,1.6,1.3,2.6c0.2,1,0.4,2.1,0.4,3.3v1.7
			c0,1.2-0.1,2.3-0.4,3.3s-0.7,1.9-1.3,2.6s-1.4,1.3-2.5,1.7s-2.3,0.6-3.9,0.6h-6.3V65.6z M433.4,80.5h2.1c0.7,0,1.4-0.1,1.9-0.3
			c0.6-0.2,1-0.5,1.4-0.9c0.4-0.4,0.6-0.9,0.8-1.6c0.2-0.7,0.3-1.5,0.3-2.5v-1.4c0-1-0.1-1.9-0.3-2.5c-0.2-0.7-0.5-1.2-0.8-1.6
			c-0.4-0.4-0.8-0.7-1.4-0.8c-0.6-0.2-1.2-0.2-1.9-0.2h-2.1V80.5z"/>
		<path class="st23" d="M454.2,84.1c-1.4,0-2.6-0.2-3.5-0.5c-0.9-0.3-1.6-0.8-2.2-1.5c-0.5-0.7-0.9-1.5-1.1-2.5
			c-0.2-1-0.3-2.1-0.3-3.4V65.6h3.9V76c0,0.9,0.1,1.7,0.2,2.3s0.3,1.1,0.5,1.5c0.3,0.4,0.6,0.7,1,0.8c0.4,0.2,1,0.2,1.6,0.2
			c0.7,0,1.2-0.1,1.6-0.2c0.4-0.2,0.7-0.4,1-0.8c0.2-0.4,0.4-0.9,0.5-1.5c0.1-0.6,0.1-1.4,0.1-2.3V65.6h3.9v10.7
			c0,1.3-0.1,2.4-0.3,3.3c-0.2,1-0.6,1.8-1.1,2.4s-1.3,1.2-2.2,1.5C456.8,83.9,455.6,84.1,454.2,84.1z"/>
		<path class="st23" d="M474.1,79.2h-5.9l-1.4,4.5h-3.8l6-18.1h4.1l6.2,18.1h-4L474.1,79.2z M469,76.2h4.3l-2.1-7L469,76.2z"/>
		<path class="st23" d="M485.7,65.6v15h7.8l-0.4,3.2h-11.2V65.6H485.7z"/>
		<path class="st23" d="M502.3,65.6h6.4c1.5,0,2.8,0.2,3.9,0.6s1.8,1,2.5,1.7c0.6,0.7,1,1.6,1.3,2.6c0.2,1,0.4,2.1,0.4,3.3v1.7
			c0,1.2-0.1,2.3-0.4,3.3s-0.7,1.9-1.3,2.6s-1.4,1.3-2.5,1.7s-2.3,0.6-3.9,0.6h-6.3V65.6z M506.2,80.5h2.1c0.7,0,1.4-0.1,1.9-0.3
			c0.6-0.2,1-0.5,1.4-0.9c0.4-0.4,0.6-0.9,0.8-1.6c0.2-0.7,0.3-1.5,0.3-2.5v-1.4c0-1-0.1-1.9-0.3-2.5c-0.2-0.7-0.5-1.2-0.8-1.6
			c-0.4-0.4-0.8-0.7-1.4-0.8c-0.6-0.2-1.2-0.2-1.9-0.2h-2.1V80.5z"/>
		<path class="st23" d="M532.2,65.6l-0.4,3h-7.9V73h7.5l-0.4,3h-7.1v4.7h8.3l-0.4,3H520V65.6H532.2z"/>
	</g>
</g>
</svg>
